<svg width="21" height="15" viewBox="0 0 21 15" fill="none" xmlns="http://www.w3.org/2000/svg">
<path d="M0.649902 6.97289C0.735 6.82703 0.812266 6.67681 0.907283 6.53676C1.10671 6.24456 1.421 6.13747 1.77287 6.10258C1.82456 6.09725 1.87677 6.09967 1.92897 6.09967C7.74274 6.09967 13.5565 6.0987 19.3708 6.10112C19.825 6.10112 20.2087 6.2528 20.4562 6.62496C20.8655 7.24038 20.57 8.1635 19.6877 8.31518C19.5692 8.33553 19.4481 8.35298 19.328 8.35298C13.5466 8.35491 7.76519 8.35346 1.98379 8.35734C1.64862 8.35734 1.32494 8.32632 1.08844 8.09469C0.928165 7.93769 0.820097 7.73465 0.68958 7.55196C0.673918 7.53016 0.662954 7.50496 0.649902 7.48121C0.649902 7.31209 0.649902 7.14249 0.649902 6.97337L0.649902 6.97289Z" fill="#F9DEB3"/>
<path d="M0.649902 1.12916C0.781464 0.941139 0.897885 0.742461 1.04824 0.568496C1.2435 0.343166 1.53377 0.26854 1.82769 0.26854C7.64407 0.264179 13.4599 0.264179 19.2763 0.267571C19.601 0.267571 19.9127 0.318452 20.1863 0.521492C20.6154 0.839862 20.7877 1.41554 20.5261 1.8822C20.2964 2.29264 19.9252 2.51748 19.4162 2.5233C19.3708 2.52378 19.3249 2.5233 19.2794 2.5233C13.5153 2.5233 7.75109 2.52088 1.98744 2.52863C1.57397 2.52911 1.21739 2.44819 0.956879 2.1492C0.826362 1.99947 0.750662 1.80903 0.649902 1.637C0.649902 1.46788 0.649902 1.29828 0.649902 1.12916Z" fill="#F9DEB3"/>
<path d="M0.649902 12.8165C0.76789 12.5436 0.896841 12.282 1.18398 12.1157C1.42622 11.9752 1.68517 11.9292 1.96395 11.9292C4.46466 11.9306 6.96538 11.9302 9.46557 11.9302C12.7609 11.9302 16.0557 11.9335 19.351 11.9268C19.9284 11.9253 20.4468 12.2771 20.5924 12.7292C20.7459 13.2065 20.5063 13.7919 20.0521 14.0202C19.8344 14.1292 19.6162 14.1902 19.3682 14.1902C13.5335 14.1878 7.69889 14.1854 1.86371 14.1936C1.36618 14.1941 0.822185 13.8341 0.689058 13.3757C0.683315 13.3568 0.663476 13.3417 0.650424 13.3248C0.650424 13.1557 0.650424 12.9861 0.650424 12.8169L0.649902 12.8165Z" fill="#F9DEB3"/>
</svg>
