<svg width="16" height="10" viewBox="0 0 16 10" fill="none" xmlns="http://www.w3.org/2000/svg">
<g clip-path="url(#clip0_110_370)">
<path d="M0.243164 1.41137C0.432702 0.971611 0.777248 0.671689 1.14328 0.393969C1.39689 0.201551 1.79515 0.272831 2.01308 0.429414C2.12282 0.508095 2.22181 0.604693 2.31734 0.701681C4.08803 2.49732 5.85756 4.29413 7.62672 6.09093C7.6647 6.12949 7.6977 6.17273 7.7399 6.22258C7.78287 6.18441 7.81549 6.15793 7.84503 6.12832C9.69399 4.25089 11.5426 2.37345 13.3908 0.494852C13.6424 0.238944 14.1573 0.208173 14.4716 0.484335C14.6876 0.674026 14.8733 0.899941 15.0697 1.11222C15.3402 1.40436 15.2815 1.95084 14.9823 2.2492C14.2571 2.97252 13.5423 3.70674 12.8233 4.43669C11.33 5.95265 9.83557 7.46707 8.34458 8.98537C7.95553 9.38151 7.51161 9.36904 7.13791 8.99161C6.24048 8.08483 5.34573 7.17571 4.45253 6.26504C3.1576 4.94266 1.86268 3.62066 0.574281 2.29166C0.438841 2.15221 0.352129 1.96408 0.243164 1.79854C0.243164 1.66961 0.243164 1.54029 0.243164 1.41137Z" fill="black"/>
</g>
<defs>
<clipPath id="clip0_110_370">
<rect width="15" height="9" fill="white" transform="translate(0.243164 0.27832)"/>
</clipPath>
</defs>
</svg>
