<svg width="161" height="35" viewBox="0 0 161 35" fill="none" xmlns="http://www.w3.org/2000/svg">
<path d="M91.7266 10.5879H94.4689V23.683H91.7266V10.5879Z" fill="url(#paint0_linear_2_3)"/>
<path d="M109.479 10.5878V23.6829H106.502L101.808 16.4078L100.559 14.358H100.52L100.559 16.2889V23.6737H97.8164V10.5786H100.793L105.487 17.8079L106.756 19.8578H106.795L106.736 17.9452V10.5786H109.479V10.5878Z" fill="url(#paint1_linear_2_3)"/>
<path d="M116.505 23.6923L111.372 10.5972H114.221L117.149 18.4945L117.852 20.4803H117.891L118.593 18.4945L121.521 10.5972H124.371L119.238 23.6923H116.495H116.505Z" fill="url(#paint2_linear_2_3)"/>
<path d="M135.672 21.6059V23.6923H126.274V10.5972H135.467V12.6836H129.026V15.8407H135.243V17.8905H129.026V21.615H135.682L135.672 21.6059Z" fill="url(#paint3_linear_2_3)"/>
<path d="M145.442 20.2787C145.442 20.0408 145.412 19.8395 145.344 19.6656C145.286 19.4918 145.149 19.327 144.964 19.1715C144.768 19.0159 144.495 18.8695 144.144 18.7231C143.792 18.5767 143.324 18.4211 142.738 18.2564C141.88 18.0093 141.148 17.7439 140.543 17.4694C139.938 17.1857 139.45 16.8837 139.069 16.5451C138.688 16.2065 138.415 15.8405 138.239 15.4379C138.064 15.0352 137.976 14.5868 137.976 14.0927C137.976 12.9762 138.425 12.0794 139.313 11.4114C140.211 10.7434 141.577 10.4048 143.422 10.4048C144.212 10.4048 144.964 10.5054 145.666 10.7068C146.369 10.9081 147.042 11.1735 147.657 11.5121L146.72 13.4429C146.193 13.1409 145.656 12.903 145.12 12.72C144.583 12.537 144.007 12.4455 143.412 12.4455C142.455 12.4455 141.762 12.5827 141.343 12.8481C140.923 13.1135 140.708 13.4795 140.708 13.9462C140.708 14.1659 140.748 14.3672 140.835 14.5502C140.913 14.7332 141.07 14.9071 141.284 15.081C141.499 15.2457 141.802 15.4196 142.192 15.5751C142.582 15.7398 143.09 15.9137 143.714 16.0876C144.466 16.3072 145.12 16.536 145.676 16.7739C146.242 17.0118 146.701 17.2772 147.081 17.5883C147.452 17.8995 147.735 18.2564 147.911 18.6682C148.086 19.08 148.184 19.5741 148.184 20.1598C148.184 21.3403 147.735 22.2554 146.828 22.9051C145.92 23.5548 144.524 23.8751 142.641 23.8751C141.684 23.8751 140.796 23.7744 139.977 23.5731C139.157 23.3718 138.396 23.0881 137.693 22.7221L138.591 20.8095C139.293 21.1298 139.977 21.386 140.621 21.5599C141.265 21.7338 141.919 21.8253 142.582 21.8253C143.539 21.8253 144.251 21.688 144.739 21.4135C145.217 21.1389 145.452 20.7546 145.452 20.2604L145.442 20.2787Z" fill="url(#paint4_linear_2_3)"/>
<path d="M160.266 10.5879V12.6743H156.274V23.6922H153.532V12.6743H149.521V10.5879H160.266Z" fill="url(#paint5_linear_2_3)"/>
<mask id="mask0_2_3" style="mask-type:luminance" maskUnits="userSpaceOnUse" x="63" y="21" width="9" height="8">
<path d="M66.5866 28.78L71.6322 23.8567L69.1045 21.3311L63.8931 26.1994L66.5866 28.78Z" fill="white"/>
</mask>
<g mask="url(#mask0_2_3)">
<path d="M71.6342 21.4614L71.5054 21.3311H71.6342V21.4614Z" fill="#C19C72"/>
<path d="M71.6345 21.764L71.1934 21.3311H71.5071L71.6345 21.46V21.764Z" fill="#C09B71"/>
<path d="M71.6335 22.0734L70.8906 21.3311H71.1936L71.6335 21.7618V22.0734Z" fill="#BF9A70"/>
<path d="M71.6342 22.3759L70.5786 21.3311H70.8914L71.6342 22.0734V22.3759Z" fill="#BE996F"/>
<path d="M71.6324 22.6763L70.2759 21.3311H70.5784L71.6324 22.3743V22.6763Z" fill="#BD986E"/>
<path d="M71.6317 22.9782L69.9629 21.3311H70.2752L71.6317 22.6763V22.9782Z" fill="#BD976D"/>
<path d="M71.6325 23.2894L69.6611 21.3311H69.9637L71.6325 22.9782V23.2894Z" fill="#BC966C"/>
<path d="M71.6323 23.5914L69.3584 21.3311H69.6609L71.6323 23.2894V23.5914Z" fill="#BB956B"/>
<path d="M71.6326 23.8933L69.0464 21.3311H69.3587L71.6326 23.5914V23.8933Z" fill="#BA946A"/>
<path d="M71.633 23.994L68.9492 21.3311H69.0468L71.633 23.8933V23.994Z" fill="#BA946A"/>
<path d="M71.633 24.0855L68.8613 21.3311H68.9492L71.633 23.994V24.0855Z" fill="#BB956B"/>
<path d="M71.6329 24.177L68.8027 21.3768L68.8515 21.3311H68.8613L71.6329 24.0855V24.177Z" fill="#BC966C"/>
<path d="M71.6319 24.2687L68.7529 21.4227L68.8017 21.377L71.6319 24.1772V24.2687Z" fill="#BD976D"/>
<path d="M71.6324 24.369L68.7046 21.4681L68.7534 21.4224L71.6324 24.2683V24.369Z" fill="#BD986E"/>
<path d="M71.6323 24.4606L68.6558 21.5049L68.7046 21.4683L71.6323 24.3691V24.4606Z" fill="#BE996F"/>
<path d="M71.6318 24.5334L71.6221 24.5425L68.6064 21.5501L68.6552 21.5044L71.6318 24.4602V24.5334Z" fill="#BF9A70"/>
<path d="M68.6019 21.562L68.5522 21.606L71.5686 24.599L71.6182 24.555L68.6019 21.562Z" fill="#C09B71"/>
<path d="M68.5609 21.5996L68.5112 21.6436L71.5276 24.6366L71.5772 24.5926L68.5609 21.5996Z" fill="#C19C72"/>
<path d="M68.5106 21.6455L68.4609 21.6895L71.4773 24.6824L71.5269 24.6385L68.5106 21.6455Z" fill="#C29D73"/>
<path d="M68.4598 21.6923L68.4102 21.7363L71.4265 24.7293L71.4762 24.6853L68.4598 21.6923Z" fill="#C39E74"/>
<path d="M68.4085 21.7387L68.3589 21.7827L71.3752 24.7757L71.4249 24.7317L68.4085 21.7387Z" fill="#C39F75"/>
<path d="M68.3607 21.791L68.311 21.835L71.3274 24.828L71.377 24.784L68.3607 21.791Z" fill="#C4A076"/>
<path d="M68.3031 21.8217L68.2534 21.8657L71.2698 24.8587L71.3194 24.8147L68.3031 21.8217Z" fill="#C5A177"/>
<path d="M68.2523 21.8681L68.2026 21.9121L71.219 24.9051L71.2686 24.8611L68.2523 21.8681Z" fill="#C6A278"/>
<path d="M68.201 21.914L68.1514 21.958L71.1677 24.951L71.2174 24.907L68.201 21.914Z" fill="#C7A379"/>
<path d="M68.1615 21.9609L68.1118 22.0049L71.1282 24.9979L71.1778 24.9539L68.1615 21.9609Z" fill="#C8A47A"/>
<path d="M68.1097 22.0078L68.0601 22.0518L71.0764 25.0448L71.1261 25.0008L68.1097 22.0078Z" fill="#C9A57B"/>
<path d="M68.0589 22.0449L68.0093 22.0889L71.0256 25.0819L71.0753 25.0379L68.0589 22.0449Z" fill="#CAA67C"/>
<path d="M68.0013 22.0971L67.9517 22.1411L70.968 25.1341L71.0177 25.0901L68.0013 22.0971Z" fill="#CAA77D"/>
<path d="M67.9535 22.1372L67.9038 22.1812L70.9202 25.1741L70.9698 25.1302L67.9535 22.1372Z" fill="#CBA87E"/>
<path d="M67.9032 22.1835L67.8535 22.2275L70.8699 25.2205L70.9195 25.1765L67.9032 22.1835Z" fill="#CCA97F"/>
<path d="M67.8519 22.2299L67.8022 22.2739L70.8186 25.2669L70.8682 25.2229L67.8519 22.2299Z" fill="#CDAA80"/>
<path d="M67.8114 22.267L67.7617 22.311L70.7781 25.304L70.8277 25.26L67.8114 22.267Z" fill="#CEAB81"/>
<path d="M67.7601 22.3134L67.7104 22.3574L70.7268 25.3504L70.7765 25.3064L67.7601 22.3134Z" fill="#CFAC82"/>
<path d="M67.7103 22.3598L67.6606 22.4038L70.677 25.3968L70.7266 25.3528L67.7103 22.3598Z" fill="#D0AD83"/>
<path d="M67.6595 22.4062L67.6099 22.4502L70.6262 25.4432L70.6759 25.3992L67.6595 22.4062Z" fill="#D0AE84"/>
<path d="M67.6043 22.4526L67.5547 22.4966L70.571 25.4896L70.6207 25.4456L67.6043 22.4526Z" fill="#D1AF85"/>
<path d="M67.5531 22.4892L67.5034 22.5332L70.5198 25.5262L70.5694 25.4822L67.5531 22.4892Z" fill="#D2B086"/>
<path d="M67.5028 22.5356L67.4531 22.5796L70.4695 25.5726L70.5191 25.5286L67.5028 22.5356Z" fill="#D3B187"/>
<path d="M67.4525 22.5825L67.4028 22.6265L70.4192 25.6195L70.4688 25.5755L67.4525 22.5825Z" fill="#D4B288"/>
<path d="M67.4115 22.6284L67.3618 22.6724L70.3782 25.6654L70.4278 25.6214L67.4115 22.6284Z" fill="#D5B389"/>
<path d="M67.3607 22.6747L67.311 22.7188L70.3274 25.7117L70.377 25.6677L67.3607 22.6747Z" fill="#D6B48A"/>
<path d="M67.3099 22.7124L67.2603 22.7563L70.2766 25.7493L70.3263 25.7053L67.3099 22.7124Z" fill="#D6B58B"/>
<path d="M67.2455 22.7582L67.1958 22.8022L70.2121 25.7952L70.2618 25.7512L67.2455 22.7582Z" fill="#D7B68C"/>
<path d="M67.2039 22.8046L67.1543 22.8486L70.1706 25.8416L70.2203 25.7976L67.2039 22.8046Z" fill="#D8B78D"/>
<path d="M67.1537 22.8515L67.104 22.8955L70.1204 25.8885L70.17 25.8445L67.1537 22.8515Z" fill="#D9B88E"/>
<path d="M67.1024 22.8969L67.0527 22.9409L70.0691 25.9339L70.1187 25.8899L67.1024 22.8969Z" fill="#DABA8F"/>
<path d="M67.0516 22.9345L67.002 22.9785L70.0183 25.9715L70.068 25.9275L67.0516 22.9345Z" fill="#DBBB90"/>
<path d="M67.0111 22.9814L66.9614 23.0254L69.9778 26.0184L70.0274 25.9744L67.0111 22.9814Z" fill="#DCBC91"/>
<path d="M66.9603 23.0273L66.9106 23.0713L69.927 26.0643L69.9766 26.0203L66.9603 23.0273Z" fill="#DDBD92"/>
<path d="M66.8958 23.0737L66.8462 23.1177L69.8625 26.1107L69.9122 26.0667L66.8958 23.0737Z" fill="#DDBE93"/>
<path d="M66.8451 23.1196L66.7954 23.1636L69.8118 26.1566L69.8614 26.1126L66.8451 23.1196Z" fill="#DEBF94"/>
<path d="M66.804 23.1567L66.7544 23.2007L69.7707 26.1937L69.8204 26.1497L66.804 23.1567Z" fill="#DFC095"/>
<path d="M66.7528 23.2031L66.7031 23.2471L69.7195 26.2401L69.7691 26.1961L66.7528 23.2031Z" fill="#E0C196"/>
<path d="M66.7025 23.2499L66.6528 23.2939L69.6692 26.2869L69.7188 26.2429L66.7025 23.2499Z" fill="#E1C297"/>
<path d="M66.6615 23.2958L66.6118 23.3398L69.6282 26.3328L69.6778 26.2888L66.6615 23.2958Z" fill="#E2C398"/>
<path d="M66.6102 23.3422L66.5605 23.3862L69.5769 26.3792L69.6265 26.3352L66.6102 23.3422Z" fill="#E3C499"/>
<path d="M66.5462 23.3793L66.4966 23.4233L69.5129 26.4163L69.5626 26.3723L66.5462 23.3793Z" fill="#E3C59A"/>
<path d="M66.4959 23.4252L66.4463 23.4692L69.4626 26.4622L69.5123 26.4182L66.4959 23.4252Z" fill="#E4C69B"/>
<path d="M66.4544 23.4716L66.4048 23.5156L69.4211 26.5086L69.4708 26.4646L66.4544 23.4716Z" fill="#E5C79C"/>
<path d="M66.4032 23.5175L66.3535 23.5615L69.3699 26.5545L69.4195 26.5105L66.4032 23.5175Z" fill="#E6C89D"/>
<path d="M66.3529 23.5644L66.3032 23.6084L69.3196 26.6014L69.3692 26.5574L66.3529 23.5644Z" fill="#E7C99E"/>
<path d="M66.3011 23.602L66.2515 23.646L69.2678 26.639L69.3175 26.595L66.3011 23.602Z" fill="#E8CA9F"/>
<path d="M66.2538 23.642L66.2041 23.686L69.2205 26.679L69.2701 26.635L66.2538 23.642Z" fill="#E9CBA0"/>
<path d="M66.2035 23.6879L66.1538 23.7319L69.1702 26.7249L69.2198 26.6809L66.2035 23.6879Z" fill="#E9CCA1"/>
<path d="M66.1458 23.7402L66.0962 23.7842L69.1125 26.7772L69.1622 26.7332L66.1458 23.7402Z" fill="#EACDA2"/>
<path d="M66.0946 23.7861L66.0449 23.8301L69.0613 26.8231L69.1109 26.7791L66.0946 23.7861Z" fill="#EBCEA3"/>
<path d="M66.0536 23.8242L66.0039 23.8682L69.0203 26.8612L69.0699 26.8172L66.0536 23.8242Z" fill="#ECCFA4"/>
<path d="M66.0033 23.8706L65.9536 23.9146L68.97 26.9075L69.0196 26.8635L66.0033 23.8706Z" fill="#EDD0A5"/>
<path d="M65.9525 23.9169L65.9028 23.9609L68.9192 26.9539L68.9688 26.9099L65.9525 23.9169Z" fill="#EED1A6"/>
<path d="M65.8958 23.957L65.8462 24.001L68.8625 26.994L68.9122 26.95L65.8958 23.957Z" fill="#EFD2A7"/>
<path d="M65.8543 24.0034L65.8047 24.0474L68.821 27.0404L68.8707 26.9964L65.8543 24.0034Z" fill="#F0D3A8"/>
<path d="M65.7962 24.0468L65.7466 24.0908L68.7629 27.0838L68.8126 27.0398L65.7962 24.0468Z" fill="#F0D4A9"/>
<path d="M65.7455 24.0927L65.6958 24.1367L68.7121 27.1297L68.7618 27.0857L65.7455 24.0927Z" fill="#F1D5AA"/>
<path d="M65.6942 24.1391L65.6445 24.1831L68.6609 27.1761L68.7105 27.1321L65.6942 24.1391Z" fill="#F2D6AB"/>
<path d="M65.6541 24.1855L65.6045 24.2295L68.6208 27.2225L68.6705 27.1785L65.6541 24.1855Z" fill="#F3D7AC"/>
<path d="M65.6024 24.2319L65.5527 24.2759L68.5691 27.2689L68.6187 27.2249L65.6024 24.2319Z" fill="#F4D8AD"/>
<path d="M65.5453 24.2626L65.4956 24.3066L68.512 27.2996L68.5616 27.2556L65.5453 24.2626Z" fill="#F5D9AE"/>
<path d="M65.495 24.3095L65.4453 24.3535L68.4617 27.3465L68.5113 27.3025L65.495 24.3095Z" fill="#F6DAAF"/>
<path d="M65.4466 24.3618L65.397 24.4058L68.4133 27.3988L68.463 27.3548L65.4466 24.3618Z" fill="#F6DBB0"/>
<path d="M65.3958 24.4082L65.3462 24.4521L68.3625 27.4451L68.4122 27.4011L65.3958 24.4082Z" fill="#F7DCB1"/>
<path d="M65.3451 24.4541L65.2954 24.498L68.3118 27.491L68.3614 27.447L65.3451 24.4541Z" fill="#F8DDB2"/>
<path d="M65.3045 24.4916L65.2549 24.5356L68.2712 27.5286L68.3209 27.4846L65.3045 24.4916Z" fill="#F9DEB3"/>
<path d="M68.2555 27.5256L66.8404 28.7793H63.8931V25.732L65.2496 24.5332L68.2555 27.5256Z" fill="#F9DEB3"/>
</g>
<path d="M66.5871 28.8346L63.8252 26.1991L69.105 21.2759L71.6814 23.8656L66.5773 28.8438L66.5871 28.8346ZM63.9521 26.1991L66.5871 28.7157L71.5741 23.8565L69.1147 21.3857L63.9521 26.1991Z" fill="#F9DEB3"/>
<mask id="mask1_2_3" style="mask-type:luminance" maskUnits="userSpaceOnUse" x="61" y="16" width="6" height="6">
<path d="M64.0495 21.3315L66.4308 18.9339L63.9129 16.4082L61.3462 18.76L64.0495 21.3315Z" fill="white"/>
</mask>
<g mask="url(#mask1_2_3)">
<path d="M66.4315 16.6563L66.1865 16.4082H66.4315V16.6563Z" fill="#C29D73"/>
<path d="M66.4324 16.969L65.8638 16.4082H66.1873L66.4324 16.6564V16.969Z" fill="#C19C72"/>
<path d="M66.4319 17.2789L65.5522 16.4082H65.865L66.4319 16.9673V17.2789Z" fill="#C09B71"/>
<path d="M66.4327 17.5997L65.2305 16.4082H65.553L66.4327 17.2789V17.5997Z" fill="#BF9A70"/>
<path d="M66.4307 17.909L64.918 16.4082H65.2303L66.4307 17.5978V17.909Z" fill="#BE996F"/>
<path d="M66.4309 18.2293L64.5962 16.4082H64.9182L66.4309 17.909V18.2293Z" fill="#BD986E"/>
<path d="M66.4307 18.5404L64.2837 16.4082H64.596L66.4307 18.2293V18.5404Z" fill="#BD976D"/>
<path d="M66.4305 18.8515L63.9614 16.4082H64.2835L66.4305 18.5404V18.8515Z" fill="#BC966C"/>
<path d="M66.4313 19.1718L63.6499 16.4082H63.9622L66.4313 18.8515V19.1718Z" fill="#BB956B"/>
<path d="M66.4312 19.4463L66.4117 19.4646L63.4839 16.5546L63.6498 16.4082L66.4312 19.1718V19.4463Z" fill="#BA946A"/>
<path d="M63.4796 16.5722L63.437 16.6099L66.3662 19.5164L66.4088 19.4787L63.4796 16.5722Z" fill="#BA946A"/>
<path d="M63.4386 16.6054L63.396 16.6431L66.3252 19.5496L66.3678 19.5119L63.4386 16.6054Z" fill="#BB956B"/>
<path d="M63.398 16.6517L63.3555 16.6895L66.2847 19.596L66.3272 19.5583L63.398 16.6517Z" fill="#BC966C"/>
<path d="M63.3473 16.6854L63.3047 16.7231L66.2339 19.6297L66.2765 19.592L63.3473 16.6854Z" fill="#BD976D"/>
<path d="M63.2999 16.725L63.2573 16.7627L66.1865 19.6692L66.2291 19.6315L63.2999 16.725Z" fill="#BD986E"/>
<path d="M63.2667 16.765L63.2241 16.8027L66.1533 19.7093L66.1959 19.6716L63.2667 16.765Z" fill="#BE996F"/>
<path d="M63.2188 16.8046L63.1763 16.8423L66.1055 19.7488L66.148 19.7111L63.2188 16.8046Z" fill="#BF9A70"/>
<path d="M63.1612 16.8446L63.1187 16.8823L66.0479 19.7889L66.0904 19.7511L63.1612 16.8446Z" fill="#C09B71"/>
<path d="M63.1275 16.8851L63.085 16.9229L66.0142 19.8294L66.0567 19.7917L63.1275 16.8851Z" fill="#C19C72"/>
<path d="M63.0797 16.9242L63.0371 16.9619L65.9663 19.8684L66.0089 19.8307L63.0797 16.9242Z" fill="#C29D73"/>
<path d="M63.0396 16.9574L62.9971 16.9951L65.9263 19.9016L65.9688 19.8639L63.0396 16.9574Z" fill="#C39E74"/>
<path d="M62.9976 17.0048L62.9551 17.0425L65.8843 19.949L65.9268 19.9113L62.9976 17.0048Z" fill="#C39F75"/>
<path d="M62.9405 17.0438L62.8979 17.0815L65.8272 19.9881L65.8697 19.9504L62.9405 17.0438Z" fill="#C4A076"/>
<path d="M62.9005 17.0775L62.8579 17.1152L65.7871 20.0218L65.8297 19.9841L62.9005 17.0775Z" fill="#C5A177"/>
<path d="M62.8585 17.1239L62.8159 17.1616L65.7451 20.0682L65.7877 20.0304L62.8585 17.1239Z" fill="#C6A278"/>
<path d="M62.8175 17.1566L62.7749 17.1943L65.7041 20.1009L65.7467 20.0632L62.8175 17.1566Z" fill="#C7A379"/>
<path d="M62.7613 17.1967L62.7188 17.2344L65.648 20.1409L65.6905 20.1032L62.7613 17.1967Z" fill="#C8A47A"/>
<path d="M62.7193 17.2435L62.6768 17.2812L65.606 20.1878L65.6485 20.1501L62.7193 17.2435Z" fill="#C9A57B"/>
<path d="M62.6793 17.2767L62.6367 17.3145L65.5659 20.221L65.6085 20.1833L62.6793 17.2767Z" fill="#CAA67C"/>
<path d="M62.6309 17.3163L62.5884 17.354L65.5176 20.2605L65.5601 20.2228L62.6309 17.3163Z" fill="#CAA77D"/>
<path d="M62.588 17.3563L62.5454 17.394L65.4746 20.3006L65.5172 20.2629L62.588 17.3563Z" fill="#CBA87E"/>
<path d="M62.5401 17.3964L62.4976 17.4341L65.4268 20.3406L65.4693 20.3029L62.5401 17.3964Z" fill="#CCA97F"/>
<path d="M62.4996 17.4301L62.457 17.4678L65.3862 20.3743L65.4288 20.3366L62.4996 17.4301Z" fill="#CDAA80"/>
<path d="M62.4591 17.4857L62.4165 17.5234L65.3457 20.43L65.3883 20.3923L62.4591 17.4857Z" fill="#CEAB81"/>
<path d="M62.4112 17.5248L62.3687 17.5625L65.2979 20.469L65.3404 20.4313L62.4112 17.5248Z" fill="#CFAC82"/>
<path d="M62.3599 17.5585L62.3174 17.5962L65.2466 20.5027L65.2891 20.465L62.3599 17.5585Z" fill="#D0AD83"/>
<path d="M62.3199 17.6049L62.2773 17.6426L65.2066 20.5491L65.2491 20.5114L62.3199 17.6049Z" fill="#D0AE84"/>
<path d="M62.2789 17.6386L62.2363 17.6763L65.1655 20.5828L65.2081 20.5451L62.2789 17.6386Z" fill="#D1AF85"/>
<path d="M62.2315 17.6781L62.189 17.7158L65.1182 20.6224L65.1607 20.5846L62.2315 17.6781Z" fill="#D2B086"/>
<path d="M62.1807 17.7245L62.1382 17.7622L65.0674 20.6687L65.11 20.631L62.1807 17.7245Z" fill="#D3B187"/>
<path d="M62.1397 17.7567L62.0972 17.7944L65.0264 20.701L65.0689 20.6633L62.1397 17.7567Z" fill="#D4B288"/>
<path d="M62.0929 17.7968L62.0503 17.8345L64.9795 20.741L65.0221 20.7033L62.0929 17.7968Z" fill="#D5B389"/>
<path d="M62.0587 17.8378L62.0161 17.8755L64.9453 20.782L64.9879 20.7443L62.0587 17.8378Z" fill="#D6B48A"/>
<path d="M62.0011 17.8768L61.9585 17.9146L64.8877 20.8211L64.9303 20.7834L62.0011 17.8768Z" fill="#D6B58B"/>
<path d="M61.9537 17.9169L61.9111 17.9546L64.8403 20.8611L64.8829 20.8234L61.9537 17.9169Z" fill="#D7B68C"/>
<path d="M61.92 17.9569L61.8774 17.9946L64.8067 20.9012L64.8492 20.8635L61.92 17.9569Z" fill="#D8B78D"/>
<path d="M61.8712 17.996L61.8286 18.0337L64.7578 20.9402L64.8004 20.9025L61.8712 17.996Z" fill="#D9B88E"/>
<path d="M61.8311 18.0306L61.7886 18.0684L64.7178 20.9749L64.7603 20.9372L61.8311 18.0306Z" fill="#DABA8F"/>
<path d="M61.7804 18.077L61.7378 18.1147L64.667 21.0213L64.7096 20.9836L61.7804 18.077Z" fill="#DBBB90"/>
<path d="M61.7403 18.1102L61.6978 18.1479L64.627 21.0545L64.6695 21.0168L61.7403 18.1102Z" fill="#DCBC91"/>
<path d="M61.692 18.1498L61.6494 18.1875L64.5786 21.094L64.6212 21.0563L61.692 18.1498Z" fill="#DDBD92"/>
<path d="M61.6514 18.1962L61.6089 18.2339L64.5381 21.1404L64.5807 21.1027L61.6514 18.1962Z" fill="#DDBE93"/>
<path d="M61.6012 18.2299L61.5586 18.2676L64.4878 21.1741L64.5304 21.1364L61.6012 18.2299Z" fill="#DEBF94"/>
<path d="M61.5528 18.2694L61.5103 18.3071L64.4395 21.2137L64.482 21.176L61.5528 18.2694Z" fill="#DFC095"/>
<path d="M61.5186 18.3095L61.4761 18.3472L64.4053 21.2537L64.4478 21.216L61.5186 18.3095Z" fill="#E0C196"/>
<path d="M61.4713 18.349L61.4287 18.3867L64.3579 21.2933L64.4005 21.2555L61.4713 18.349Z" fill="#E1C297"/>
<path d="M61.4141 18.389L61.3716 18.4268L64.3008 21.3333L64.3433 21.2956L61.4141 18.389Z" fill="#E2C398"/>
<path d="M64.3033 21.3309H64.2252L61.3462 18.4758V18.4484L61.3755 18.4209L64.3033 21.3309Z" fill="#E3C499"/>
<path d="M64.1373 21.3312L61.3462 18.5584V18.4761L64.2252 21.3312H64.1373Z" fill="#E3C59A"/>
<path d="M64.0593 21.3318L61.3462 18.6414V18.5591L64.1373 21.3318H64.0593Z" fill="#E4C69B"/>
<path d="M63.9714 21.3315L61.3462 18.7326V18.6411L64.0593 21.3315H63.9714Z" fill="#E5C79C"/>
<path d="M63.8836 21.3318L61.3462 18.8153V18.7329L63.9714 21.3318H63.8836Z" fill="#E6C89D"/>
<path d="M63.8055 21.3315L61.3462 18.8973V18.8149L63.8836 21.3315H63.8055Z" fill="#E7C99E"/>
<path d="M63.7177 21.3311L61.3462 18.9793V18.897L63.8055 21.3311H63.7177Z" fill="#E8CA9F"/>
<path d="M63.6299 21.3318L61.3462 19.0623V18.98L63.7177 21.3318H63.6299Z" fill="#E9CBA0"/>
<path d="M63.5518 21.3315L61.3462 19.1444V19.062L63.6299 21.3315H63.5518Z" fill="#E9CCA1"/>
<path d="M63.464 21.3311L61.3462 19.2356V19.144L63.5518 21.3311H63.464Z" fill="#EACDA2"/>
<path d="M63.3761 21.3319L61.3462 19.3187V19.2363L63.464 21.3319H63.3761Z" fill="#EBCEA3"/>
<path d="M63.298 21.3311L61.3462 19.4002V19.3179L63.3761 21.3311H63.298Z" fill="#ECCFA4"/>
<path d="M63.2102 21.3317L61.3462 19.4832V19.4009L63.298 21.3317H63.2102Z" fill="#EDD0A5"/>
<path d="M63.1224 21.3314L61.3462 19.5653V19.4829L63.2102 21.3314H63.1224Z" fill="#EED1A6"/>
<path d="M63.0345 21.3316L61.3462 19.6569V19.5654L63.1224 21.3316H63.0345Z" fill="#EFD2A7"/>
<path d="M62.9565 21.3314L61.3462 19.7391V19.6567L63.0345 21.3314H62.9565Z" fill="#F0D3A8"/>
<path d="M62.8686 21.3315L61.3462 19.8216V19.7393L62.9565 21.3315H62.8686Z" fill="#F0D4A9"/>
<path d="M62.7808 21.3317L61.3462 19.9041V19.8218L62.8686 21.3317H62.7808Z" fill="#F1D5AA"/>
<path d="M62.7027 21.3319L61.3462 19.9867V19.9043L62.7808 21.3319H62.7027Z" fill="#F2D6AB"/>
<path d="M62.6149 21.3315L61.3462 20.0778V19.9863L62.7027 21.3315H62.6149Z" fill="#F3D7AC"/>
<path d="M62.5271 21.3318L61.3462 20.1605V20.0781L62.6149 21.3318H62.5271Z" fill="#F4D8AD"/>
<path d="M62.4507 21.3328L61.3462 20.2422V20.1597L62.5289 21.3328H62.4507Z" fill="#F5D9AE"/>
<path d="M62.3627 21.3333L61.3462 20.3252V20.2427L62.4507 21.3333H62.3627Z" fill="#F6DAAF"/>
<path d="M62.2748 21.3334L61.3462 20.4077V20.3252L62.3627 21.3334H62.2748Z" fill="#F6DBB0"/>
<path d="M62.1966 21.3334L61.3462 20.4994V20.4077L62.2748 21.3334H62.1966Z" fill="#F7DCB1"/>
<path d="M62.1086 21.3331L61.3462 20.5815V20.499L62.1966 21.3331H62.1086Z" fill="#F8DDB2"/>
<path d="M62.0206 21.3321L61.3462 20.6631V20.5806L62.1086 21.3321H62.0206Z" fill="#F9DEB3"/>
<path d="M61.3462 20.6631L62.0206 21.3321H61.3462V20.6631Z" fill="#F9DEB3"/>
</g>
<path d="M64.0495 21.3952L61.2876 18.7597L63.9128 16.353L66.4893 18.9428L66.46 18.9702L64.0397 21.4044L64.0495 21.3952ZM61.4145 18.7597L64.0495 21.2763L66.3722 18.9336L63.9128 16.4628L61.4145 18.7597Z" fill="#F9DEB3"/>
<mask id="mask2_2_3" style="mask-type:luminance" maskUnits="userSpaceOnUse" x="63" y="0" width="22" height="35">
<path d="M82.5138 1.52909C82.5138 1.52909 80.8645 1.95004 80.8645 3.3593V15.7681L76.8242 12.675V2.41674C76.8242 2.41674 76.8242 1.99579 75.1261 2.13306C73.428 2.27032 70.2855 2.69127 68.6362 6.068C66.9868 9.44473 68.9485 12.7666 68.9485 12.7666C68.9485 12.7666 69.7097 14.5236 73.9842 15.6674C77.1853 16.5276 81.2744 19.9318 82.9725 24.004L79.4592 27.4723L72.5887 34.2623L69.739 31.5445C69.739 31.5445 73.8379 27.6644 76.0337 25.4133C79.0786 21.4875 73.3792 18.431 71.642 17.7356C69.5633 16.7564 65.2399 15.8871 64.0493 11.1743C63.1417 7.91651 64.8008 4.71365 64.8008 4.71365C64.8008 4.71365 65.9231 0.91597 73.2913 0.312002C79.5861 0.128982 82.7773 0.0283203 82.7773 0.0283203C82.7773 0.0283203 84.3779 0.165586 83.9777 0.91597C83.5874 1.32777 82.5334 1.52909 82.5334 1.52909H82.5138Z" fill="white"/>
</mask>
<g mask="url(#mask2_2_3)">
<path d="M84.3585 13.9833L70.2954 0.0371094H84.3585V13.9833Z" fill="#F9DEB3"/>
<path d="M84.3589 14.2212L70.0615 0.0371094H70.2958L84.3589 13.9833V14.2212Z" fill="#F9DEB3"/>
<path d="M84.3582 14.4591L69.8169 0.0371094H70.0609L84.3582 14.2212V14.4591Z" fill="#F8DDB2"/>
<path d="M84.3585 14.6971L69.583 0.0371094H69.8172L84.3585 14.4591V14.6971Z" fill="#F7DCB1"/>
<path d="M84.3584 14.935L69.3389 0.0371094H69.5828L84.3584 14.6971V14.935Z" fill="#F6DBB0"/>
<path d="M84.3582 15.1729L69.0947 0.0371094H69.3387L84.3582 14.935V15.1729Z" fill="#F6DAAF"/>
<path d="M84.359 15.4108L68.8613 0.0371094H69.0955L84.359 15.1729V15.4108Z" fill="#F5D9AE"/>
<path d="M84.3584 15.6488L68.6167 0.0371094H68.8607L84.3584 15.4108V15.6488Z" fill="#F4D8AD"/>
<path d="M84.3582 15.8867L68.3823 0.0371094H68.6165L84.3582 15.6488V15.8867Z" fill="#F3D7AC"/>
<path d="M84.3586 16.1246L68.1387 0.0371094H68.3827L84.3586 15.8867V16.1246Z" fill="#F2D6AB"/>
<path d="M84.3584 16.3625L67.9043 0.0371094H68.1385L84.3584 16.1246V16.3625Z" fill="#F1D5AA"/>
<path d="M84.3588 16.6005L67.6606 0.0371094H67.9046L84.3588 16.3626V16.6005Z" fill="#F0D4A9"/>
<path d="M84.3586 16.8384L67.4165 0.0371094H67.6605L84.3586 16.6005V16.8384Z" fill="#F0D3A8"/>
<path d="M84.3575 17.0763L67.1812 0.0371094H67.4154L84.3575 16.8384V17.0763Z" fill="#EFD2A7"/>
<path d="M84.3588 17.3143L66.9385 0.0371094H67.1825L84.3588 17.0763V17.3143Z" fill="#EED1A6"/>
<path d="M84.3581 17.5522L66.7036 0.0371094H66.9378L84.3581 17.3143V17.5522Z" fill="#EDD0A5"/>
<path d="M84.359 17.7901L66.5483 0.119469L66.6459 0.0371094H66.7045L84.359 17.5522V17.7901Z" fill="#ECCFA4"/>
<path d="M84.3584 18.0277L66.4209 0.228953L66.5478 0.119141L84.3584 17.7898V18.0277Z" fill="#EBCEA3"/>
<path d="M84.3579 18.2662L66.2935 0.348456L66.4203 0.229492L84.3579 18.0282V18.2662Z" fill="#EACDA2"/>
<path d="M84.3593 18.5038L66.168 0.457957L66.2948 0.348145L84.3593 18.2659V18.5038Z" fill="#E9CCA1"/>
<path d="M84.3582 18.7413L66.04 0.567332L66.1669 0.45752L84.3582 18.5034V18.7413Z" fill="#E9CBA0"/>
<path d="M84.3586 18.9793L65.9136 0.677195L66.0404 0.567383L84.3586 18.7413V18.9793Z" fill="#E8CA9F"/>
<path d="M84.3585 19.2167L65.7866 0.795721L65.9135 0.676758L84.3585 18.9788V19.2167Z" fill="#E7C99E"/>
<path d="M84.3584 19.4553L65.6597 0.906199L65.7865 0.796387L84.3584 19.2174V19.4553Z" fill="#E6C89D"/>
<path d="M84.3584 19.6933L65.5327 1.01606L65.6596 0.90625L84.3584 19.4554V19.6933Z" fill="#E5C79C"/>
<path d="M84.3583 19.9313L65.4058 1.12593L65.5326 1.01611L84.3583 19.6934V19.9313Z" fill="#E4C69B"/>
<path d="M84.3582 20.1693L65.2788 1.24494L65.4057 1.12598L84.3582 19.9313V20.1693Z" fill="#E3C59A"/>
<path d="M84.3586 20.4069L65.1523 1.35444L65.2792 1.24463L84.3586 20.169V20.4069Z" fill="#E3C499"/>
<path d="M84.3585 20.6458L65.0254 1.46528L65.1523 1.35547L84.3585 20.4079V20.6458Z" fill="#E2C398"/>
<path d="M84.3589 20.8833L64.8989 1.58381L65.0258 1.46484L84.3589 20.6454V20.8833Z" fill="#E1C297"/>
<path d="M84.3588 21.1205L64.772 1.69282L64.8988 1.58301L84.3588 20.8825V21.1205Z" fill="#E0C196"/>
<path d="M84.3583 21.3589L64.6543 1.80317L64.7714 1.69336L84.3583 21.121V21.3589Z" fill="#DFC095"/>
<path d="M84.3592 21.5969L64.5283 1.91303L64.6552 1.80322L84.3592 21.359V21.5969Z" fill="#DEBF94"/>
<path d="M84.3581 21.8349L64.4004 2.03205L64.5273 1.91309L84.3581 21.597V21.8349Z" fill="#DDBE93"/>
<path d="M84.3585 22.073L64.2739 2.14204L64.4008 2.03223L84.3585 21.8351V22.073Z" fill="#DDBD92"/>
<path d="M84.3589 22.3105L64.1475 2.25141L64.2743 2.1416L84.3589 22.0725V22.3105Z" fill="#DCBC91"/>
<path d="M84.3588 22.548L64.0205 2.36079L64.1474 2.25098L84.3588 22.31V22.548Z" fill="#DBBB90"/>
<path d="M84.3583 22.7869L63.8931 2.48078L64.0199 2.36182L84.3583 22.549V22.7869Z" fill="#DABA8F"/>
<path d="M84.3592 23.024L63.7671 2.58979L63.894 2.47998L84.3592 22.7861V23.024Z" fill="#D9B88E"/>
<path d="M84.3586 23.262L63.6396 2.69966L63.7665 2.58984L84.3586 23.0241V23.262Z" fill="#D8B78D"/>
<path d="M84.358 23.5005L63.5122 2.81001L63.6391 2.7002L84.358 23.2626V23.5005Z" fill="#D7B68C"/>
<path d="M84.3589 23.738L63.3862 2.92853L63.5131 2.80957L84.3589 23.5001V23.738Z" fill="#D6B58B"/>
<path d="M84.3583 23.9761L63.2588 3.03852L63.3857 2.92871L84.3583 23.7382V23.9761Z" fill="#D6B48A"/>
<path d="M84.3587 24.0397L84.2709 24.1221L63.1323 3.1479L63.2592 3.03809L84.3587 23.9756V24.0397Z" fill="#D5B389"/>
<path d="M84.2709 24.1231L84.144 24.2329L63.1323 3.38685V3.14893L84.2709 24.1231Z" fill="#D4B288"/>
<path d="M84.144 24.2323L84.0172 24.3421L63.1323 3.62416V3.38623L84.144 24.2323Z" fill="#D3B187"/>
<path d="M84.0172 24.3424L83.8903 24.4614L63.1323 3.86244V3.62451L84.0172 24.3424Z" fill="#D2B086"/>
<path d="M83.8903 24.4608L83.7634 24.5706L63.1323 4.09974V3.86182L83.8903 24.4608Z" fill="#D1AF85"/>
<path d="M83.7634 24.571L83.6366 24.6808L63.1323 4.33802V4.1001L83.7634 24.571Z" fill="#D0AE84"/>
<path d="M83.6366 24.6806L83.5097 24.7996L63.1323 4.57582V4.33789L83.6366 24.6806Z" fill="#D0AD83"/>
<path d="M83.5097 24.7999L83.3828 24.9098L63.1323 4.8141V4.57617L83.5097 24.7999Z" fill="#CFAC82"/>
<path d="M83.3828 24.9091L83.2559 25.019L63.1323 5.0514V4.81348L83.3828 24.9091Z" fill="#CEAB81"/>
<path d="M83.2559 25.0193L83.1291 25.1291L63.1323 5.28968V5.05176L83.2559 25.0193Z" fill="#CDAA80"/>
<path d="M83.1291 25.129L83.0022 25.248L63.1323 5.52748V5.28955L83.1291 25.129Z" fill="#CCA97F"/>
<path d="M83.0022 25.2478L82.8753 25.3576L63.1323 5.76527V5.52734L83.0022 25.2478Z" fill="#CBA87E"/>
<path d="M82.8753 25.3575L82.7485 25.4673L63.1323 6.00306V5.76514L82.8753 25.3575Z" fill="#CAA77D"/>
<path d="M82.7485 25.4677L82.6216 25.5775L63.1323 6.24134V6.00342L82.7485 25.4677Z" fill="#CAA67C"/>
<path d="M82.6216 25.5783L82.4947 25.6973L63.1323 6.48011V6.24219L82.6216 25.5783Z" fill="#C9A57B"/>
<path d="M82.4947 25.6962L82.3678 25.806L63.1323 6.71693V6.479L82.4947 25.6962Z" fill="#C8A47A"/>
<path d="M82.3678 25.8063L82.241 25.9161L63.1323 6.95521V6.71729L82.3678 25.8063Z" fill="#C7A379"/>
<path d="M82.241 25.9155L82.1141 26.0253L63.1323 7.19252V6.95459L82.241 25.9155Z" fill="#C6A278"/>
<path d="M82.1141 26.0267L81.9872 26.1456L63.1323 7.43177V7.19385L82.1141 26.0267Z" fill="#C5A177"/>
<path d="M81.9872 26.145L81.8604 26.2548L63.1323 7.66908V7.43115L81.9872 26.145Z" fill="#C4A076"/>
<path d="M81.8604 26.2547L81.7335 26.3645L63.1323 7.90687V7.66895L81.8604 26.2547Z" fill="#C39F75"/>
<path d="M81.7335 26.3644L81.6066 26.4833L63.1323 8.14467V7.90674L81.7335 26.3644Z" fill="#C39E74"/>
<path d="M81.6066 26.4832L81.4798 26.593L63.1323 8.38246V8.14453L81.6066 26.4832Z" fill="#C29D73"/>
<path d="M81.4798 26.5934L81.3529 26.7032L63.1323 8.62074V8.38281L81.4798 26.5934Z" fill="#C19C72"/>
<path d="M81.3529 26.7026L81.226 26.8124L63.1323 8.85804V8.62012L81.3529 26.7026Z" fill="#C09B71"/>
<path d="M81.226 26.8132L81.0991 26.9322L63.1323 9.09681V8.85889L81.226 26.8132Z" fill="#BF9A70"/>
<path d="M81.0991 26.9325L80.9723 27.0423L63.1323 9.33509V9.09717L81.0991 26.9325Z" fill="#BE996F"/>
<path d="M80.9723 27.0412L80.8454 27.151L63.1323 9.57191V9.33398L80.9723 27.0412Z" fill="#BD986E"/>
<path d="M80.8454 27.1509L80.7185 27.2607L63.1323 9.8097V9.57178L80.8454 27.1509Z" fill="#BD976D"/>
<path d="M80.7185 27.2611L80.5917 27.38L63.1323 10.048V9.81006L80.7185 27.2611Z" fill="#BC966C"/>
<path d="M80.5917 27.3809L80.4648 27.4907L63.1323 10.2868V10.0488L80.5917 27.3809Z" fill="#BB956B"/>
<path d="M80.4648 27.4901L80.3379 27.5999L63.1323 10.5241V10.2861L80.4648 27.4901Z" fill="#BA946A"/>
<path d="M80.3379 27.6002L80.2599 27.6734L63.1323 10.6891V10.5244L80.3379 27.6002Z" fill="#BA946A"/>
<path d="M80.2598 27.6738L80.172 27.7561L63.1323 10.845V10.6895L80.2598 27.6738Z" fill="#BB956B"/>
<path d="M80.172 27.7553L80.0842 27.8286L63.1323 11.009V10.8442L80.172 27.7553Z" fill="#BC966C"/>
<path d="M80.0842 27.8284L79.9963 27.9016L63.1323 11.1735V11.0088L80.0842 27.8284Z" fill="#BD976D"/>
<path d="M79.9963 27.9019L79.9183 27.9843L63.1323 11.3294V11.1738L79.9963 27.9019Z" fill="#BD986E"/>
<path d="M79.9183 27.9845L79.8304 28.0577L63.1323 11.4943V11.3296L79.9183 27.9845Z" fill="#BE996F"/>
<path d="M79.8304 28.0575L79.7426 28.1307L63.1323 11.6497V11.4941L79.8304 28.0575Z" fill="#BF9A70"/>
<path d="M79.7426 28.1309L79.6548 28.2133L63.1323 11.8146V11.6499L79.7426 28.1309Z" fill="#C09B71"/>
<path d="M79.6548 28.2136L79.5669 28.2868L63.1323 11.9797V11.8149L79.6548 28.2136Z" fill="#C19C72"/>
<path d="M79.5669 28.2866L79.4889 28.3598L63.1323 12.1351V11.9795L79.5669 28.2866Z" fill="#C29D73"/>
<path d="M79.4889 28.3591L79.401 28.4323L63.1323 12.299V12.1343L79.4889 28.3591Z" fill="#C39E74"/>
<path d="M79.401 28.4326L79.3132 28.5149L63.1323 12.4549V12.2993L79.401 28.4326Z" fill="#C39F75"/>
<path d="M79.3132 28.5146L79.2254 28.5879L63.1323 12.6193V12.4546L79.3132 28.5146Z" fill="#C4A076"/>
<path d="M79.2254 28.5877L79.1473 28.6609L63.1323 12.7747V12.6191L79.2254 28.5877Z" fill="#C5A177"/>
<path d="M79.1473 28.6616L79.0595 28.7439L63.1323 12.9401V12.7754L79.1473 28.6616Z" fill="#C6A278"/>
<path d="M79.0595 28.7443L78.9716 28.8175L63.1323 13.1051V12.9404L79.0595 28.7443Z" fill="#C7A379"/>
<path d="M78.9716 28.8168L78.8838 28.89L63.1323 13.2601V13.1045L78.9716 28.8168Z" fill="#C8A47A"/>
<path d="M78.8838 28.8902L78.796 28.9726L63.1323 13.425V13.2603L78.8838 28.8902Z" fill="#C9A57B"/>
<path d="M78.796 28.9724L78.7179 29.0456L63.1323 13.5804V13.4248L78.796 28.9724Z" fill="#CAA67C"/>
<path d="M78.7179 29.0458L78.6301 29.119L63.1323 13.7453V13.5806L78.7179 29.0458Z" fill="#CAA77D"/>
<path d="M78.6301 29.1184L78.5422 29.1916L63.1323 13.9093V13.7446L78.6301 29.1184Z" fill="#CBA87E"/>
<path d="M78.5422 29.1919L78.4544 29.2743L63.1323 14.0652V13.9097L78.5422 29.1919Z" fill="#CCA97F"/>
<path d="M78.4544 29.2744L78.3763 29.3477L63.1323 14.2301V14.0654L78.4544 29.2744Z" fill="#CDAA80"/>
<path d="M78.3763 29.348L78.2885 29.4212L63.1323 14.386V14.2305L78.3763 29.348Z" fill="#CEAB81"/>
<path d="M78.2885 29.4209L78.2006 29.5032L63.1323 14.5505V14.3857L78.2885 29.4209Z" fill="#CFAC82"/>
<path d="M78.2006 29.5031L78.1128 29.5763L63.1323 14.7059V14.5503L78.2006 29.5031Z" fill="#D0AD83"/>
<path d="M78.1128 29.5765L78.025 29.6497L63.1323 14.8708V14.7061L78.1128 29.5765Z" fill="#D0AE84"/>
<path d="M78.025 29.649L77.9469 29.7222L63.1323 15.0348V14.8701L78.025 29.649Z" fill="#D1AF85"/>
<path d="M77.9469 29.7235L77.8591 29.8059L63.1323 15.1917V15.0361L77.9469 29.7235Z" fill="#D2B086"/>
<path d="M77.8591 29.8056L77.7712 29.8788L63.1323 15.3561V15.1914L77.8591 29.8056Z" fill="#D3B187"/>
<path d="M77.7712 29.8791L77.6834 29.9523L63.1323 15.512V15.3564L77.7712 29.8791Z" fill="#D4B288"/>
<path d="M77.6834 29.9516L77.6053 30.0339L63.1323 15.6759V15.5112L77.6834 29.9516Z" fill="#D5B389"/>
<path d="M77.6053 30.0338L77.5175 30.107L63.1323 15.8405V15.6758L77.6053 30.0338Z" fill="#D6B48A"/>
<path d="M77.5175 30.1073L77.4297 30.1805L63.1323 15.9964V15.8408L77.5175 30.1073Z" fill="#D6B58B"/>
<path d="M77.4297 30.1812L77.3418 30.2635L63.1323 16.1618V15.9971L77.4297 30.1812Z" fill="#D7B68C"/>
<path d="M77.3418 30.2629L77.254 30.3361L63.1323 16.3167V16.1611L77.3418 30.2629Z" fill="#D8B78D"/>
<path d="M77.254 30.3363L77.1759 30.4095L63.1323 16.4816V16.3169L77.254 30.3363Z" fill="#D9B88E"/>
<path d="M77.1759 30.4093L77.0881 30.4825L63.1323 16.637V16.4814L77.1759 30.4093Z" fill="#DABA8F"/>
<path d="M77.0881 30.4822L77.0002 30.5646L63.1323 16.8014V16.6367L77.0881 30.4822Z" fill="#DBBB90"/>
<path d="M77.0002 30.5644L76.9124 30.6376L63.1323 16.966V16.8013L77.0002 30.5644Z" fill="#DCBC91"/>
<path d="M76.9124 30.638L76.8343 30.7112L63.1323 17.1219V16.9663L76.9124 30.638Z" fill="#DDBD92"/>
<path d="M76.8343 30.7118L76.7465 30.7942L63.1323 17.2873V17.1226L76.8343 30.7118Z" fill="#DDBE93"/>
<path d="M76.7465 30.7935L76.6587 30.8668L63.1323 17.4422V17.2866L76.7465 30.7935Z" fill="#DEBF94"/>
<path d="M76.6587 30.8669L76.5708 30.9402L63.1323 17.6071V17.4424L76.6587 30.8669Z" fill="#DFC095"/>
<path d="M76.5708 30.9405L76.483 31.0228L63.1323 17.7721V17.6074L76.5708 30.9405Z" fill="#E0C196"/>
<path d="M76.483 31.0222L76.4049 31.0954L63.1323 17.9271V17.7715L76.483 31.0222Z" fill="#E1C297"/>
<path d="M76.4049 31.0951L76.3171 31.1683L63.1323 18.0915V17.9268L76.4049 31.0951Z" fill="#E2C398"/>
<path d="M76.3171 31.1686L76.2293 31.2418L63.1323 18.2474V18.0918L76.3171 31.1686Z" fill="#E3C499"/>
<path d="M76.2293 31.242L76.1414 31.3244L63.1323 18.4123V18.2476L76.2293 31.242Z" fill="#E3C59A"/>
<path d="M76.1414 31.3242L76.0634 31.3974L63.1323 18.5677V18.4121L76.1414 31.3242Z" fill="#E4C69B"/>
<path d="M76.0634 31.3976L75.9755 31.4708L63.1323 18.7326V18.5679L76.0634 31.3976Z" fill="#E5C79C"/>
<path d="M75.9755 31.4711L75.8877 31.5535L63.1323 18.8976V18.7329L75.9755 31.4711Z" fill="#E6C89D"/>
<path d="M75.8877 31.5529L75.7999 31.6261L63.1323 19.0525V18.897L75.8877 31.5529Z" fill="#E7C99E"/>
<path d="M75.7999 31.6258L75.712 31.699L63.1323 19.217V19.0522L75.7999 31.6258Z" fill="#E8CA9F"/>
<path d="M75.712 31.6988L75.6339 31.772L63.1323 19.3724V19.2168L75.712 31.6988Z" fill="#E9CBA0"/>
<path d="M75.6339 31.7732L75.5461 31.8555L63.1323 19.5383V19.3735L75.6339 31.7732Z" fill="#E9CCA1"/>
<path d="M75.5461 31.8554L75.4583 31.9286L63.1323 19.7028V19.5381L75.5461 31.8554Z" fill="#EACDA2"/>
<path d="M75.4583 31.9284L75.3704 32.0016L63.1323 19.8582V19.7026L75.4583 31.9284Z" fill="#EBCEA3"/>
<path d="M75.3705 32.0013L75.2924 32.0837L63.1323 20.0226V19.8579L75.3705 32.0013Z" fill="#ECCFA4"/>
<path d="M75.2924 32.0835L75.2045 32.1567L63.1323 20.178V20.0225L75.2924 32.0835Z" fill="#EDD0A5"/>
<path d="M75.2045 32.1569L75.1167 32.2301L63.1323 20.3429V20.1782L75.2045 32.1569Z" fill="#EED1A6"/>
<path d="M75.1167 32.2304L75.0289 32.3128L63.1323 20.4988V20.3433L75.1167 32.2304Z" fill="#EFD2A7"/>
<path d="M75.0289 32.313L74.941 32.3862L63.1323 20.6637V20.499L75.0289 32.313Z" fill="#F0D3A8"/>
<path d="M74.941 32.3856L74.863 32.4588L63.1323 20.8278V20.6631L74.941 32.3856Z" fill="#F0D4A9"/>
<path d="M74.863 32.4591L74.7751 32.5323L63.1323 20.9837V20.8281L74.863 32.4591Z" fill="#F1D5AA"/>
<path d="M74.7751 32.5325L74.6873 32.6148L63.1323 21.1486V20.9839L74.7751 32.5325Z" fill="#F2D6AB"/>
<path d="M74.6873 32.6152L74.5995 32.6884L63.1323 21.3045V21.1489L74.6873 32.6152Z" fill="#F3D7AC"/>
<path d="M74.5995 32.6881L74.5214 32.7613L63.1323 21.4689V21.3042L74.5995 32.6881Z" fill="#F4D8AD"/>
<path d="M74.5214 32.7611L74.4336 32.8435L63.1323 21.6335V21.4688L74.5214 32.7611Z" fill="#F5D9AE"/>
<path d="M74.4336 32.8438L74.3457 32.917L63.1323 21.7894V21.6338L74.4336 32.8438Z" fill="#F6DAAF"/>
<path d="M74.3457 32.9167L74.2579 32.9899L63.1323 21.9538V21.7891L74.3457 32.9167Z" fill="#F6DBB0"/>
<path d="M74.2579 32.9898L74.1701 33.0721L63.1323 22.1092V21.9536L74.2579 32.9898Z" fill="#F7DCB1"/>
<path d="M74.1701 33.0723L74.092 33.1455L63.1323 22.2741V22.1094L74.1701 33.0723Z" fill="#F8DDB2"/>
<path d="M74.092 33.1458L74.0042 33.219L63.1323 22.4391V22.2744L74.092 33.1458Z" fill="#F9DEB3"/>
<path d="M74.0042 33.2184L72.833 34.2525H63.1323V22.4385L74.0042 33.2184Z" fill="#F9DEB3"/>
</g>
<path d="M72.5786 34.3164L69.6703 31.5436L69.6996 31.5162C69.6996 31.5162 73.818 27.6178 75.9846 25.385C76.7848 24.3509 77.0386 23.2894 76.7263 22.2462C76.0822 20.0591 73.0958 18.3661 71.6124 17.7805C71.2708 17.6157 70.8609 17.4602 70.4315 17.2863C68.1381 16.3803 65.0054 15.145 64.0002 11.1917C63.0926 7.95225 64.7321 4.74023 64.7516 4.70363C64.7516 4.70363 65.0444 3.73362 66.2448 2.71786C67.3476 1.7753 69.4556 0.594817 73.2812 0.283682C79.576 0.100661 82.7673 0 82.7673 0C82.8161 0 83.7725 0.0915103 84.0164 0.503307C84.0945 0.631421 84.0945 0.786989 84.0067 0.951707C83.6066 1.37265 82.6014 1.57398 82.533 1.58313C82.4842 1.60143 80.9228 2.03153 80.9228 3.36758V15.8587L76.7946 12.7016V2.41587C76.7946 2.41587 76.7946 2.37927 76.7263 2.33351C76.6092 2.23285 76.2383 2.08644 75.1355 2.17795C73.8375 2.28776 70.4023 2.57144 68.6846 6.08544C67.0646 9.39811 68.9774 12.7108 68.9969 12.7474C69.0067 12.7657 69.8069 14.5044 74.0034 15.63C75.6039 16.0601 77.4582 17.1399 79.0783 18.604C80.8252 20.1689 82.2207 22.0814 83.021 23.994V24.0215L72.5981 34.3255L72.5786 34.3164ZM69.7972 31.5436L72.5786 34.1974L82.9136 23.994C81.1765 19.8394 76.9995 16.5176 73.9644 15.7123C69.7191 14.5776 68.9384 12.8572 68.8993 12.784C68.8798 12.7565 66.9572 9.40726 68.587 6.05798C70.3242 2.49823 73.8082 2.2054 75.116 2.10474C76.209 2.01323 76.6189 2.15049 76.7751 2.28776C76.8531 2.36097 76.8629 2.42502 76.8629 2.42502V12.6559L80.8154 15.6757V3.35843C80.8154 1.94002 82.4745 1.50077 82.494 1.49162C82.494 1.49162 83.5285 1.2903 83.9091 0.896801C83.9774 0.759536 83.9872 0.640572 83.9189 0.53076C83.6944 0.155568 82.7477 0.0732083 82.738 0.0732083C82.738 0.0732083 79.5369 0.164719 73.2617 0.35689C69.4751 0.668025 67.3769 1.83936 66.2838 2.76361C65.103 3.77022 64.8102 4.71278 64.8102 4.72193C64.7907 4.75854 63.1706 7.95225 64.0587 11.1643C65.0444 15.0809 68.1576 16.3071 70.4413 17.2039C70.8805 17.3778 71.2903 17.5334 71.6319 17.6981C73.1251 18.2929 76.1407 20.0042 76.7946 22.2187C77.1166 23.2985 76.8629 24.3783 76.0431 25.4307C73.9644 27.5629 70.1583 31.1776 69.7777 31.5436H69.7972Z" fill="#F9DEB3"/>
<path d="M9.40188 20.0556H4.18535L2.79024 23.4881H0L5.62091 10.5293H7.96633L13.5872 23.4881H10.797L9.40188 20.0556ZM7.6226 15.601L6.81384 13.4797H6.7734L5.96463 15.601L5.01434 18.0308H8.5729L7.6226 15.601Z" fill="url(#paint6_linear_2_3)"/>
<path d="M24.3661 21.4248V23.4881H15.7325V10.5293H18.4014V21.4248H24.3661Z" fill="url(#paint7_linear_2_3)"/>
<path d="M34.9664 20.0556H29.7499L28.3548 23.4881H25.5645L31.1854 10.5293H33.5308L39.1518 23.4881H36.3615L34.9664 20.0556ZM33.1871 15.601L32.3784 13.4797H32.3379L31.5292 15.601L30.5789 18.0308H34.1374L33.1871 15.601Z" fill="url(#paint8_linear_2_3)"/>
<path d="M49.506 20.0556H44.2895L42.8943 23.4881H40.1041L45.725 10.5293H48.0704L53.6913 23.4881H50.9011L49.506 20.0556ZM47.7267 15.601L46.9179 13.4797H46.8775L46.0687 15.601L45.1184 18.0308H48.677L47.7267 15.601Z" fill="url(#paint9_linear_2_3)"/>
<defs>
<linearGradient id="paint0_linear_2_3" x1="93.0929" y1="-25.9796" x2="93.0929" y2="18.9153" gradientUnits="userSpaceOnUse">
<stop stop-color="#F9DEB3"/>
<stop offset="0.57" stop-color="#7E582B"/>
<stop offset="0.99" stop-color="#F9DEB3"/>
</linearGradient>
<linearGradient id="paint1_linear_2_3" x1="103.643" y1="-25.9798" x2="103.643" y2="18.9152" gradientUnits="userSpaceOnUse">
<stop stop-color="#F9DEB3"/>
<stop offset="0.57" stop-color="#7E582B"/>
<stop offset="0.99" stop-color="#F9DEB3"/>
</linearGradient>
<linearGradient id="paint2_linear_2_3" x1="117.871" y1="-25.9795" x2="117.871" y2="18.9155" gradientUnits="userSpaceOnUse">
<stop stop-color="#F9DEB3"/>
<stop offset="0.57" stop-color="#7E582B"/>
<stop offset="0.99" stop-color="#F9DEB3"/>
</linearGradient>
<linearGradient id="paint3_linear_2_3" x1="130.968" y1="-25.9795" x2="130.968" y2="18.9155" gradientUnits="userSpaceOnUse">
<stop stop-color="#F9DEB3"/>
<stop offset="0.57" stop-color="#7E582B"/>
<stop offset="0.99" stop-color="#F9DEB3"/>
</linearGradient>
<linearGradient id="paint4_linear_2_3" x1="142.934" y1="-25.9797" x2="142.934" y2="18.9152" gradientUnits="userSpaceOnUse">
<stop stop-color="#F9DEB3"/>
<stop offset="0.57" stop-color="#7E582B"/>
<stop offset="0.99" stop-color="#F9DEB3"/>
</linearGradient>
<linearGradient id="paint5_linear_2_3" x1="154.889" y1="-25.9796" x2="154.889" y2="18.9153" gradientUnits="userSpaceOnUse">
<stop stop-color="#F9DEB3"/>
<stop offset="0.57" stop-color="#7E582B"/>
<stop offset="0.99" stop-color="#F9DEB3"/>
</linearGradient>
<linearGradient id="paint6_linear_2_3" x1="26.8468" y1="-0.0382959" x2="26.8468" y2="26.5159" gradientUnits="userSpaceOnUse">
<stop stop-color="#F9DEB3"/>
<stop offset="0.213004" stop-color="#7E582B"/>
<stop offset="0.684919" stop-color="#F9DEB3"/>
</linearGradient>
<linearGradient id="paint7_linear_2_3" x1="26.8468" y1="-0.0382959" x2="26.8468" y2="26.5159" gradientUnits="userSpaceOnUse">
<stop stop-color="#F9DEB3"/>
<stop offset="0.213004" stop-color="#7E582B"/>
<stop offset="0.684919" stop-color="#F9DEB3"/>
</linearGradient>
<linearGradient id="paint8_linear_2_3" x1="26.8468" y1="-0.0382959" x2="26.8468" y2="26.5159" gradientUnits="userSpaceOnUse">
<stop stop-color="#F9DEB3"/>
<stop offset="0.213004" stop-color="#7E582B"/>
<stop offset="0.684919" stop-color="#F9DEB3"/>
</linearGradient>
<linearGradient id="paint9_linear_2_3" x1="26.8468" y1="-0.0382959" x2="26.8468" y2="26.5159" gradientUnits="userSpaceOnUse">
<stop stop-color="#F9DEB3"/>
<stop offset="0.213004" stop-color="#7E582B"/>
<stop offset="0.684919" stop-color="#F9DEB3"/>
</linearGradient>
</defs>
</svg>
