<svg xmlns="http://www.w3.org/2000/svg" xmlns:xlink="http://www.w3.org/1999/xlink" width="34.444" height="34.515" viewBox="0 0 34.444 34.515">
  <defs>
    <clipPath id="clip-path">
      <rect id="Rectangle_14" data-name="Rectangle 14" width="34.515" height="34.444" fill="#ff7d1c"/>
    </clipPath>
  </defs>
  <g id="Group_270" data-name="Group 270" transform="translate(0 34.515) rotate(-90)">
    <g id="Group_13" data-name="Group 13" clip-path="url(#clip-path)">
      <path id="Path_44" data-name="Path 44" d="M34.515,18.229V16.211c-.021-.119-.045-.238-.062-.358-.108-.742-.17-1.493-.329-2.223a16.84,16.84,0,0,0-6.4-10.081,16.807,16.807,0,0,0-12.2-3.46A16.7,16.7,0,0,0,5.754,4.4,16.884,16.884,0,0,0,.268,14.255c-.115.647-.18,1.3-.268,1.956v2.018c.028.242.056.484.083.727A17,17,0,0,0,4.417,28.7a16.936,16.936,0,0,0,9.868,5.472c.649.115,1.307.18,1.961.268h2.022a1.844,1.844,0,0,1,.26-.056,16.446,16.446,0,0,0,7.529-2.37,17,17,0,0,0,8.188-11.834c.121-.646.181-1.3.269-1.955m-14.874-1a5.3,5.3,0,0,1-.419-.327q-2.826-2.815-5.647-5.635a3.753,3.753,0,0,1-.34-.372A1.41,1.41,0,0,1,13.5,8.918a1.451,1.451,0,0,1,2.024.239q3.445,3.433,6.887,6.87a1.485,1.485,0,0,1,0,2.392q-3.407,3.4-6.815,6.8a1.458,1.458,0,1,1-2.039-2.026q2.847-2.842,5.7-5.681a3.613,3.613,0,0,1,.391-.281" transform="translate(0 0)" fill="#ff7d1c"/>
    </g>
  </g>
</svg>
