<svg xmlns="http://www.w3.org/2000/svg" width="8.599" height="14.748" viewBox="0 0 8.599 14.748">
  <path id="Path_45" data-name="Path 45" d="M159.251,109.854c-.116-.122-.185-.2-.258-.272q-2.463-2.464-4.929-4.927a1.248,1.248,0,0,1-.373-1.433,1.215,1.215,0,0,1,1.888-.507,2.638,2.638,0,0,1,.235.212q2.954,2.951,5.908,5.9a1.259,1.259,0,0,1,.394,1.4,1.564,1.564,0,0,1-.363.542q-2.985,3-5.985,5.989a1.232,1.232,0,0,1-2.167-.88,1.422,1.422,0,0,1,.486-.917q2.437-2.43,4.869-4.865c.081-.081.176-.148.294-.247" transform="translate(-153.597 -102.452)"/>
</svg>
