<svg width="123" height="123" viewBox="0 0 123 123" fill="none" xmlns="http://www.w3.org/2000/svg">
<g clip-path="url(#clip0_212_490)">
<path d="M0 61.441H0.016C0.016 78.417 6.89 93.776 17.997 104.884C29.104 115.992 44.464 122.864 61.438 122.864V122.88H61.44V122.864C78.418 122.864 93.776 115.99 104.884 104.883C115.99 93.776 122.864 78.416 122.864 61.442H122.88V61.44H122.864C122.864 44.463 115.99 29.104 104.884 17.997C93.776 6.89 78.417 0.0160065 61.443 0.0160065V7.62939e-06H61.44V0.0160065C44.464 0.0160065 29.105 6.89 17.998 17.997C6.891 29.104 0.016 44.464 0.016 61.438H0L0 61.441ZM42.479 71.699C40.515 73.608 37.379 73.563 35.469 71.601C33.56 69.64 33.603 66.501 35.567 64.592L58.086 42.754L61.542 46.308L58.084 42.739C60.055 40.829 63.2 40.877 65.111 42.847C65.168 42.904 65.22 42.962 65.272 43.022L87.329 64.592C89.292 66.501 89.336 69.64 87.426 71.601C85.519 73.563 82.381 73.608 80.417 71.699L61.528 53.226L42.479 71.699Z" fill="#3DA5A9"/>
</g>
<defs>
<clipPath id="clip0_212_490">
<rect width="122.88" height="122.88" fill="white" transform="matrix(0 -1 1 0 0 122.88)"/>
</clipPath>
</defs>
</svg>
