<svg xmlns="http://www.w3.org/2000/svg" xmlns:xlink="http://www.w3.org/1999/xlink" width="34.515" height="34.515" viewBox="0 0 34.515 34.515">
  <defs>
    <clipPath id="clip-path">
      <rect id="Rectangle_210" data-name="Rectangle 210" width="34.515" height="34.515" fill="none"/>
    </clipPath>
  </defs>
  <g id="Group_269" data-name="Group 269" transform="translate(34.515) rotate(90)" clip-path="url(#clip-path)">
    <path id="Path_111" data-name="Path 111" d="M34.515,16.246v2.022a2.3,2.3,0,0,0-.057.291,16.237,16.237,0,0,1-1.97,6.8,17.028,17.028,0,0,1-12.224,8.886c-.658.126-1.33.183-2,.272H16.246a1.811,1.811,0,0,0-.26-.055,16.226,16.226,0,0,1-6.83-1.973A17.027,17.027,0,0,1,.272,20.261C.146,19.6.089,18.933,0,18.269V16.246a2.309,2.309,0,0,0,.057-.291,16.237,16.237,0,0,1,1.97-6.8A17.028,17.028,0,0,1,14.251.272c.658-.126,1.33-.183,2-.272h2.022a1.809,1.809,0,0,0,.26.055,16.225,16.225,0,0,1,6.83,1.973,17.027,17.027,0,0,1,8.884,12.225c.126.657.183,1.328.272,1.993m-2.883,1.025A14.375,14.375,0,1,0,17.243,31.632,14.378,14.378,0,0,0,31.632,17.272"/>
    <path id="Path_112" data-name="Path 112" d="M160.212,111.113c-.135-.143-.217-.233-.3-.318q-2.882-2.883-5.767-5.764a1.461,1.461,0,0,1-.437-1.676,1.421,1.421,0,0,1,2.209-.593,3.084,3.084,0,0,1,.275.248q3.456,3.453,6.913,6.905a1.473,1.473,0,0,1,.461,1.641,1.83,1.83,0,0,1-.425.634q-3.493,3.512-7,7.007a1.441,1.441,0,0,1-2.535-1.029,1.664,1.664,0,0,1,.569-1.073q2.851-2.843,5.7-5.692c.1-.095.206-.174.344-.289" transform="translate(-140.654 -93.818)"/>
  </g>
</svg>
