<svg id="Group_183" data-name="Group 183" xmlns="http://www.w3.org/2000/svg" xmlns:xlink="http://www.w3.org/1999/xlink" width="20.661" height="18.667" viewBox="0 0 20.661 18.667">
  <defs>
    <clipPath id="clip-path">
      <rect id="Rectangle_133" data-name="Rectangle 133" width="20.661" height="18.667" fill="#ff7d1c"/>
    </clipPath>
  </defs>
  <g id="Group_182" data-name="Group 182" clip-path="url(#clip-path)">
    <path id="Path_75" data-name="Path 75" d="M20.706,37.386a5.3,5.3,0,0,1-.4.888,1.934,1.934,0,0,1-1.641.832h-.121q-8.169,0-16.339,0a2.207,2.207,0,0,1-1.5-.529,2.008,2.008,0,0,1,0-2.95A2.113,2.113,0,0,1,2.124,35.1q8.25,0,16.5,0a2.006,2.006,0,0,1,2.048,1.648.333.333,0,0,0,.034.069Z" transform="translate(-0.045 -27.768)" fill="#ff7d1c"/>
    <path id="Path_76" data-name="Path 76" d="M20.661,2.273a2.573,2.573,0,0,1-.473,1.008A2.045,2.045,0,0,1,18.751,4c-.067.005-.134,0-.2,0H2.1a2.005,2.005,0,0,1-1.9-1.132A1.98,1.98,0,0,1,1.326.137a2.8,2.8,0,0,1,.81-.124C7.6.006,13.059.016,18.52,0a2.079,2.079,0,0,1,2.111,1.675.372.372,0,0,0,.03.074Z" transform="translate(0 0)" fill="#ff7d1c"/>
    <path id="Path_77" data-name="Path 77" d="M20.678,72.436a2.384,2.384,0,0,1-.519,1.074,2,2,0,0,1-1.38.663c-.074,0-.148,0-.222,0q-8.212,0-16.425,0a2.066,2.066,0,0,1-1.7-.8,1.989,1.989,0,0,1,.9-3.07,2.7,2.7,0,0,1,.809-.13c5.468-.008,10.937,0,16.4-.011a2.07,2.07,0,0,1,2.1,1.687.176.176,0,0,0,.029.051Z" transform="translate(-0.017 -55.513)" fill="#ff7d1c"/>
  </g>
</svg>
