<svg xmlns="http://www.w3.org/2000/svg" width="67.986" height="68" viewBox="0 0 67.986 68">
  <g id="Group_29" data-name="Group 29" transform="translate(-1489.886 -4853)" opacity="0.3">
    <path id="Path_50" data-name="Path 50" d="M0,41.274A33.993,33.993,0,1,0,33.8,7.284,33.978,33.978,0,0,0,0,41.274M34.006,72.141A30.849,30.849,0,1,1,64.82,41.3,30.927,30.927,0,0,1,34.006,72.141" transform="translate(1489.886 4845.716)"/>
    <path id="Path_51" data-name="Path 51" d="M99.819,166.228h30.8c.26,0,.52.009.779-.009a1.564,1.564,0,0,0,0-3.123c-.235-.018-.472-.007-.708-.007H99.616c.279-.3.441-.488.615-.663q5.432-5.436,10.865-10.871a5.62,5.62,0,0,0,.575-.624,1.551,1.551,0,0,0-.151-2.009,1.575,1.575,0,0,0-2.01-.181,4.63,4.63,0,0,0-.574.524q-6.962,6.96-13.922,13.924c-1.094,1.095-1.094,1.848,0,2.944Q102,173.121,109,180.093a2.943,2.943,0,0,0,1.38.732,1.3,1.3,0,0,0,1.4-.757,1.48,1.48,0,0,0-.081-1.668,4.27,4.27,0,0,0-.527-.571q-5.457-5.461-10.923-10.914a2.941,2.941,0,0,0-.675-.384l.247-.3" transform="translate(1413.125 4722.345)"/>
  </g>
</svg>
