<svg width="123" height="123" viewBox="0 0 123 123" fill="none" xmlns="http://www.w3.org/2000/svg">
<g clip-path="url(#clip0_211_490)">
<path d="M61.4298 0.0299908C69.4976 0.0221057 77.4878 1.60451 84.9435 4.68674C92.3993 7.76898 99.1744 12.2906 104.881 17.993C110.589 23.6954 115.116 30.4669 118.204 37.9201C121.292 45.3734 122.881 53.3622 122.88 61.43C122.889 69.5006 121.307 77.4938 118.223 84.9522C115.139 92.4105 110.615 99.1874 104.909 104.895C99.2033 110.603 92.4278 115.129 84.9705 118.215C77.5132 121.301 69.5205 122.887 61.4498 122.88C53.3865 122.884 45.4015 121.298 37.9515 118.214C30.5014 115.129 23.7325 110.606 18.0318 104.904C12.3311 99.2014 7.81041 92.431 4.72835 84.9799C1.64629 77.5288 0.0632819 69.5433 0.0698544 61.48C0.0645922 53.4163 1.6493 45.4307 4.73332 37.98C7.81734 30.5294 12.3401 23.7599 18.043 18.059C23.7458 12.358 30.5167 7.8374 37.9684 4.75581C45.42 1.67421 53.4062 0.0921013 61.4698 0.0999905L61.4298 0.0299908ZM28.6598 61.44L62.9798 92.44L62.9798 72.63H86.8798L86.8798 50.26L62.9898 50.26L62.9898 30.48L28.6598 61.48V61.44Z" fill="#3DA5A9"/>
</g>
<defs>
<clipPath id="clip0_211_490">
<rect width="122.88" height="122.88" fill="white" transform="matrix(-1 0 0 -1 122.88 122.88)"/>
</clipPath>
</defs>
</svg>
