<svg xmlns="http://www.w3.org/2000/svg" width="68.04" height="68" viewBox="0 0 68.04 68">
  <path id="Path_49" data-name="Path 49" d="M753.075,68h-3.984c-.436-.051-.871-.106-1.307-.153A34.019,34.019,0,0,1,717.6,39.789c-.219-1.255-.347-2.527-.517-3.791V32.015c.039-.212.083-.424.117-.638.287-1.832.443-3.7.878-5.493A34.015,34.015,0,0,1,757.321.584c20.759,3.9,33.123,25.622,25.568,45.309-4.586,11.949-13.426,19.116-26.013,21.586-1.252.246-2.533.351-3.8.521m8.962-32.4.106.2a5.741,5.741,0,0,0-.521.414q-4.865,4.854-9.722,9.715c-.563.563-1.146,1.11-1.674,1.7a1.549,1.549,0,0,0,.057,2.11,1.588,1.588,0,0,0,2.117.132,5.206,5.206,0,0,0,.482-.456q6.95-6.947,13.9-13.9c1.119-1.119,1.124-1.883.017-2.99q-6.972-6.972-13.946-13.943a4.857,4.857,0,0,0-.484-.452,1.558,1.558,0,0,0-1.857-.048,1.491,1.491,0,0,0-.6,1.695,2.78,2.78,0,0,0,.658.969q5.526,5.554,11.074,11.086c.158.158.3.328.541.584H731.15c-1.451,0-2.225.562-2.211,1.6s.774,1.573,2.243,1.573h30.855Z" transform="translate(-717.084 0)" fill="#ff7d1c"/>
</svg>
