<svg width="123" height="123" viewBox="0 0 123 123" fill="none" xmlns="http://www.w3.org/2000/svg">
<g clip-path="url(#clip0_211_492)">
<path d="M61.45 122.85C53.3823 122.858 45.3921 121.275 37.9364 118.193C30.4806 115.111 23.7055 110.589 17.9984 104.887C12.2913 99.1846 7.76424 92.4131 4.67594 84.9599C1.58764 77.5067 -0.00127809 69.5178 3.99422e-05 61.45C-0.00916679 53.3794 1.57334 45.3862 4.65698 37.9279C7.74062 30.4695 12.2648 23.6926 17.9707 17.9849C23.6766 12.2771 30.4521 7.75068 37.9094 4.66461C45.3667 1.57855 53.3594 -0.00655917 61.43 2.03994e-05C69.4934 -0.00392523 77.4784 1.58169 84.9284 4.66617C92.3785 7.75066 99.1474 12.2735 104.848 17.9761C110.549 23.6786 115.069 30.4491 118.152 37.9001C121.234 45.3512 122.817 53.3367 122.81 61.4C122.815 69.4637 121.231 77.4493 118.147 84.9C115.063 92.3506 110.54 99.1201 104.837 104.821C99.1341 110.522 92.3632 115.043 84.9115 118.124C77.4599 121.206 69.4737 122.788 61.41 122.78L61.45 122.85ZM94.22 61.44L59.9 30.44V50.25H36V72.62H59.89V92.4L94.22 61.4V61.44Z" fill="#3DA5A9"/>
</g>
<defs>
<clipPath id="clip0_211_492">
<rect width="122.88" height="122.88" fill="white"/>
</clipPath>
</defs>
</svg>
